# Alias OBJ Model File
# Exported from SketchUp, (c) 2000-2012 Trimble Navigation Limited
# File units = meters

mtllib vystavna_miestnost.mtl

g Mesh1 podlaha_hl_budova1 Model

usemtl FrontColor
v 25 0 -15
vt -984.252 590.551
vn 0 -1 -0
v 0 0 -0
vt 0 0
v 0 0 -15
vt 0 590.551
f 1/1/1 2/2/1 3/3/1

v 25 0 -0
vt -984.252 0
f 2/2/1 1/1/1 4/4/1

usemtl BackColor
vn -0 1 0
f 3/3/2 2/2/2 1/1/2

usemtl FrontColor
vn -1 0 -0
v 0 0.1 -15
vt -590.551 3.93701
vt -590.551 0
f 2/2/3 5/5/3 3/6/3

v 0 0.1 -0
vt 0 3.93701
f 5/5/3 2/2/3 6/7/3

usemtl BackColor
vn 1 -0 0
f 6/7/4 2/2/4 5/5/4

usemtl FrontColor
vn 0 0 1
v 25 0.1 -0
vt 984.252 3.93701
f 2/2/5 7/8/5 6/7/5

vt 984.252 0
f 7/8/5 2/2/5 4/9/5

usemtl BackColor
vn -0 -0 -1
f 4/9/6 2/2/6 7/8/6

f 4/4/2 1/1/2 2/2/2

usemtl FrontColor
vt 590.551 0
vn 1 0 -0
f 1/10/7 7/7/7 4/2/7

v 25 0.1 -15
vt 590.551 3.93701
f 7/7/7 1/10/7 8/11/7

usemtl BackColor
vn -1 -0 0
f 4/2/8 7/7/8 1/10/8

f 8/11/8 1/10/8 7/7/8

usemtl FrontColor
vn 0 0 -1
vt -984.252 3.93701
f 1/4/9 5/7/9 8/12/9

f 5/7/9 1/4/9 3/2/9

usemtl BackColor
vn -0 -0 1
f 3/2/10 1/4/10 5/7/10

f 8/12/10 5/7/10 1/4/10

usemtl Color_A01
vn 0 1 -0
vt 984.252 590.551
f 5/3/11 7/9/11 8/13/11

f 7/9/11 5/3/11 6/2/11

usemtl BackColor
vn -0 -1 0
f 6/2/12 5/3/12 7/9/12

f 8/13/12 7/9/12 5/3/12

f 6/7/6 7/8/6 2/2/6

f 3/6/4 5/5/4 2/2/4

g Mesh2 Model

usemtl Color_I01
v 25 6.6 1.5
vt 984.252 -59.0551
vn -1.9251e-017 1 -8.03424e-050
v 0 6.6 -15
vt 5.00222e-015 590.551
v 0 6.6 1.5
vt 5.00222e-015 -59.0551
f 9/14/13 10/15/13 11/16/13

v 25 6.6 -15
f 10/15/13 9/14/13 12/13/13

vn 1.9251e-017 -1 8.03424e-050
f 11/16/14 10/15/14 9/14/14

usemtl Color_E13
vt -590.551 259.843
vt 59.0551 259.843
f 10/17/3 6/7/3 11/18/3

f 6/7/3 10/17/3 5/5/3

usemtl Color_C03
f 11/18/4 6/7/4 10/17/4

usemtl Color_E13
vt 0 3.83619
vn 4.92579e-018 -0.22486 0.974391
vt 984.252 266.467
vt -2.98538e-016 266.467
f 6/19/15 9/20/15 11/21/15

vt 984.252 3.83619
f 9/20/15 6/19/15 7/22/15

usemtl Color_C03
vn -4.92579e-018 0.22486 -0.974391
f 7/22/16 6/19/16 9/20/16

f 11/21/16 9/20/16 6/19/16

usemtl Color_E13
vt 590.551 259.843
vt -59.0551 259.843
f 7/7/7 12/23/7 9/24/7

f 12/23/7 7/7/7 8/11/7

usemtl Color_C03
f 9/24/8 12/23/8 7/7/8

usemtl Color_I01
f 12/13/14 9/14/14 10/15/14

usemtl Color_C03
f 8/11/8 7/7/8 12/23/8

f 5/5/4 10/17/4 6/7/4

