# Alias OBJ Model File
# Exported from SketchUp, (c) 2000-2012 Trimble Navigation Limited
# File units = meters

mtllib vystavna_miestnost.mtl

g Mesh1 podlaha_hl_budova1 Model

usemtl FrontColor
v 25 0 -15
vt -984.252 590.551
vn 0 -1 -0
v 0 0 -0
vt 0 0
v 0 0 -15
vt 0 590.551
f 1/1/1 2/2/1 3/3/1

v 25 0 -0
vt -984.252 0
f 2/2/1 1/1/1 4/4/1

usemtl BackColor
vn -0 1 0
f 3/3/2 2/2/2 1/1/2

usemtl FrontColor
vn -1 0 -0
v 0 0.1 -15
vt -590.551 3.93701
vt -590.551 0
f 2/2/3 5/5/3 3/6/3

v 0 0.1 -0
vt 0 3.93701
f 5/5/3 2/2/3 6/7/3

usemtl BackColor
vn 1 -0 0
f 6/7/4 2/2/4 5/5/4

usemtl FrontColor
vn 0 0 1
v 25 0.1 -0
vt 984.252 3.93701
f 2/2/5 7/8/5 6/7/5

vt 984.252 0
f 7/8/5 2/2/5 4/9/5

usemtl BackColor
vn -0 -0 -1
f 4/9/6 2/2/6 7/8/6

f 4/4/2 1/1/2 2/2/2

usemtl FrontColor
vt 590.551 0
vn 1 0 -0
f 1/10/7 7/7/7 4/2/7

v 25 0.1 -15
vt 590.551 3.93701
f 7/7/7 1/10/7 8/11/7

usemtl BackColor
vn -1 -0 0
f 4/2/8 7/7/8 1/10/8

f 8/11/8 1/10/8 7/7/8

usemtl FrontColor
vn 0 0 -1
vt -984.252 3.93701
f 1/4/9 5/7/9 8/12/9

f 5/7/9 1/4/9 3/2/9

usemtl BackColor
vn -0 -0 1
f 3/2/10 1/4/10 5/7/10

f 8/12/10 5/7/10 1/4/10

usemtl _1
vt 0 3
vn 0 1 -0
vt 8.33333 0
vt 8.33333 3
f 5/13/11 7/14/11 8/15/11

f 7/14/11 5/13/11 6/2/11

usemtl BackColor
vn -0 -1 0
f 6/2/12 5/3/12 7/9/12

vt 984.252 590.551
f 8/16/12 7/9/12 5/3/12

f 6/7/6 7/8/6 2/2/6

f 3/6/4 5/5/4 2/2/4

g Mesh2 podlaha_hl_budova1 Model

l 1 3

l 4 1

l 2 4

l 3 2

l 3 5

l 5 6

l 8 5

l 7 8

l 4 7

l 6 7

l 2 6

l 1 8

g Mesh3 Model

usemtl FrontColor
v 25 6.6 1.5
vt 984.252 -59.0551
vn -1.9251e-017 1 -8.03424e-050
v 0 6.6 -15
vt 5.00222e-015 590.551
v 0 6.6 1.5
vt 5.00222e-015 -59.0551
f 9/17/13 10/18/13 11/19/13

v 25 6.6 -15
f 10/18/13 9/17/13 12/16/13

usemtl BackColor
vn 1.9251e-017 -1 8.03424e-050
f 11/19/14 10/18/14 9/17/14

usemtl Translucent_Glass_Tinted
vt -24.6063 10.8268
vt 0 0.164042
vt 2.46063 10.8268
f 10/20/3 6/21/3 11/22/3

vt -24.6063 0.164042
f 6/21/3 10/20/3 5/23/3

f 11/22/4 6/21/4 10/20/4

vt 0 0.159841
vn 4.92579e-018 -0.22486 0.974391
vt 41.0105 11.1028
vt -1.24391e-017 11.1028
f 6/24/15 9/25/15 11/26/15

vt 41.0105 0.159841
f 9/25/15 6/24/15 7/27/15

vn -4.92579e-018 0.22486 -0.974391
f 7/27/16 6/24/16 9/25/16

f 11/26/16 9/25/16 6/24/16

vt 24.6063 10.8268
vt -2.46063 10.8268
f 7/21/7 12/28/7 9/29/7

vt 24.6063 0.164042
f 12/28/7 7/21/7 8/30/7

f 9/29/8 12/28/8 7/21/8

usemtl BackColor
f 12/16/14 9/17/14 10/18/14

usemtl Translucent_Glass_Tinted
f 8/30/8 7/21/8 12/28/8

f 5/23/4 10/20/4 6/21/4

g Mesh4 Model

l 5 10

l 6 5

l 11 6

l 11 10

l 11 9

l 9 12

l 7 9

l 7 6

l 7 8

l 8 12

l 12 10

