# Alias OBJ Model File
# Exported from SketchUp, (c) 2000-2012 Trimble Navigation Limited
# File units = meters

mtllib strom_stvorec.mtl

g Mesh1 kmen1 strom_stvorec1 Model

usemtl M_0042_Sienna
v -0.0154 1.49671 -0.00459491
vt -3.05794 59.4542
vn 0.916629 0.133075 0.376939
v -0.0463205 1.49671 0.0705967
vt -6.25876 59.4542
vn 0.890271 0.125871 0.437691
v 0.2 0 -0
vt 0 0
f 1/1/1 2/2/2 3/3/2

usemtl BackColor
vn -0.890271 -0.125871 -0.437691
vn -0.916629 -0.133075 -0.376939
f 3/3/3 2/2/3 1/1/4

usemtl M_0042_Sienna
vt -7.25586 59.3408
v 0.1 0 0.173205
vt -7.87402 -5.55112e-17
vn 0.859964 0.11811 0.4965
f 3/3/2 2/4/2 4/5/5

usemtl BackColor
vn -0.859964 -0.11811 -0.4965
f 4/5/6 2/4/3 3/3/3

usemtl M_0042_Sienna
vt -9.69766 58.5974
vn -5.53976e-16 0.0683956 0.997658
v -0.1 0 0.173205
vt -11.811 -0.466396
vt -3.93701 -0.466396
f 2/6/7 5/7/7 4/8/7

v -0.108162 1.49671 0.0705967
vt -12.1323 58.5974
f 5/7/7 2/6/7 6/9/7

usemtl BackColor
vn 5.53976e-16 -0.0683956 -0.997658
f 4/8/8 5/7/8 2/6/8

usemtl M_0042_Sienna
vt 11.811 -6.8191
vn 0 -1 -0
v -0.1 0 -0.173205
vt 11.811 6.8191
vt 3.93701 -6.8191
f 5/10/9 7/11/9 4/12/9

v -0.2 0 -2.44929e-17
vt 15.748 9.64289e-16
f 7/11/9 5/10/9 8/13/9

usemtl BackColor
vn -0 1 0
f 8/13/10 5/10/10 7/11/10

usemtl M_0042_Sienna
v -0.139082 1.49671 -0.00459491
vt -6.83151 58.464
vn -0.897067 0.0289573 0.440944
vt -7.87402 -0.501321
vn -0.86544 0.0367586 0.499662
vt 3.55271e-15 -0.501321
f 9/14/11 8/15/12 5/16/11

usemtl BackColor
vn 0.897067 -0.0289573 -0.440944
vn 0.86544 -0.0367586 -0.499662
f 5/16/13 8/15/14 9/14/13

usemtl M_0042_Sienna
v -0.108161 1.49671 -0.0797865
vt 1.70904 58.4337
vn -0.896986 0.0315342 -0.440932
vt 5.98931 -0.530896
vt 4.90986 58.4337
vn -0.92424 0.036451 -0.380069
f 10/17/15 8/18/15 9/19/16

usemtl BackColor
vn 0.92424 -0.036451 0.380069
vn 0.896986 -0.0315342 0.440932
f 9/19/17 8/18/18 10/17/18

usemtl M_0042_Sienna
vt -8.88178e-16 -0.36109
vn -0.865722 0.0264764 -0.499825
vt 7.87402 -0.36109
vt 3.34581 58.585
f 7/20/19 8/21/15 10/22/15

usemtl BackColor
vn 0.865722 -0.0264764 0.499825
f 10/22/18 8/21/18 7/20/20

usemtl M_0042_Sienna
vt 12.1323 58.6153
vn 6.15775e-17 0.0622949 -0.998058
v 0.1 0 -0.173205
vt 3.93701 -0.424795
vt 11.811 -0.424795
f 10/23/21 11/24/21 7/25/21

v -0.0463205 1.49671 -0.0797865
vt 9.69766 58.6153
f 11/24/21 10/23/21 12/26/21

usemtl BackColor
vn -6.15775e-17 -0.0622949 0.998058
f 7/25/22 11/24/22 10/23/22

usemtl M_0042_Sienna
vt 3.93701 6.8191
f 4/12/9 7/11/9 11/27/9

usemtl BackColor
f 4/12/10 7/11/10 5/10/10

f 11/27/10 7/11/10 4/12/10

usemtl M_0042_Sienna
f 4/12/9 11/27/9 3/3/9

usemtl BackColor
f 3/3/10 11/27/10 4/12/10

usemtl M_0042_Sienna
vt 7.87402 5.55112e-17
vn 0.891176 0.118058 -0.438026
vt 4.39682 59.3702
vn 0.859537 0.122178 -0.496254
f 11/28/23 1/29/23 3/3/24

vt 7.804 0.118828
vt 6.59338 59.427
vn 0.918887 0.113417 -0.377867
vt 3.39255 59.427
f 11/30/23 12/31/25 1/32/23

usemtl BackColor
vn -0.891176 -0.118058 0.438026
vn -0.918887 -0.113417 0.377867
f 1/32/26 12/31/27 11/30/26

usemtl M_0042_Sienna
vt -9.69766 3.1412
vn 0 1 -0
vt -9.69766 -2.7794
vt -8.48031 0.180902
f 12/33/28 2/34/28 1/35/28

vt -12.1323 3.1412
f 10/36/28 2/34/28 12/33/28

vt -12.1323 -2.7794
f 10/36/28 6/37/28 2/34/28

vt -13.3497 0.180902
f 6/37/28 10/36/28 9/38/28

usemtl BackColor
vn -0 -1 0
f 9/38/29 10/36/29 6/37/29

f 2/34/29 6/37/29 10/36/29

f 6/9/8 2/6/8 5/7/8

usemtl M_0042_Sienna
vt -5.24448 58.6543
vt 1.81469 -0.2842
vt -2.04365 58.6543
vn -0.92465 0.0210255 0.380237
f 9/39/11 5/40/11 6/41/30

usemtl BackColor
vn 0.92465 -0.0210255 -0.380237
f 6/41/31 5/40/13 9/39/13

f 12/33/29 2/34/29 10/36/29

f 1/35/29 2/34/29 12/33/29

f 12/26/22 10/23/22 11/24/22

vn -0.859537 -0.122178 0.496254
f 3/3/32 1/29/26 11/28/26

g Mesh2 kmen1 strom_stvorec1 Model

l 2 1

l 4 2

l 4 3

l 5 4

l 5 6

l 8 5

l 7 8

l 11 7

l 11 12

l 3 11

l 3 1

l 1 12

l 12 10

l 10 9

l 7 10

l 9 6

l 8 9

l 6 2

g Mesh3 koruna_stvorec1 strom_stvorec1 Model

usemtl M_0058_Olive
v -0.739971 2.01671 -0.840736
vt -5.1668 24.8031
vn 0 0 -1
v -0.0399713 1.49671 -0.840736
vt -32.7259 4.33071
v -0.739971 1.49671 -0.840736
vt -5.1668 4.33071
f 13/42/33 14/43/33 15/44/33

v -0.0399713 2.01671 -0.840736
vt -32.7259 24.8031
f 14/43/33 13/42/33 16/45/33

usemtl BackColor
vn -0 -0 1
f 15/44/34 14/43/34 13/42/34

usemtl M_0058_Olive
vt -32.7259 59.0551
v -0.739971 1.49671 -0.300736
vt -5.1668 37.7953
vt -5.1668 59.0551
f 14/46/9 17/47/9 15/48/9

v -0.569971 1.49671 -0.300736
vt -11.8597 37.7953
f 17/47/9 14/46/9 18/49/9

usemtl BackColor
f 15/48/10 17/47/10 14/46/10

usemtl M_0058_Olive
vt -37.7953 4.33071
vn -1 0 -0
vt -59.0551 24.8031
vt -59.0551 4.33071
f 17/50/35 13/51/35 15/52/35

v -0.739971 2.01671 -0.300736
vt -37.7953 24.8031
f 13/51/35 17/50/35 19/53/35

usemtl BackColor
vn 1 -0 0
f 19/53/36 17/50/36 13/51/36

usemtl M_0058_Olive
vt 5.1668 4.33071
vn 0 0 1
v -0.569971 2.01671 -0.300736
vt 11.8597 24.8031
vt 5.1668 24.8031
f 17/54/37 20/55/37 19/56/37

vt 11.8597 4.33071
f 20/55/37 17/54/37 18/57/37

usemtl BackColor
vn -0 -0 -1
f 18/57/38 17/54/38 20/55/38

f 18/49/10 14/46/10 17/47/10

usemtl M_0058_Olive
v -0.569971 1.49671 0.199264
vt -11.8597 18.1102
f 18/49/9 14/46/9 21/58/9

usemtl BackColor
f 21/58/10 14/46/10 18/49/10

usemtl M_0058_Olive
v -0.189971 1.49671 0.499264
vt -26.8203 6.29921
f 21/58/9 14/46/9 22/59/9

usemtl BackColor
f 22/59/10 14/46/10 21/58/10

usemtl M_0058_Olive
v -0.0399713 1.49671 -0.510736
vt -32.7259 46.063
f 22/59/9 14/46/9 23/60/9

usemtl BackColor
f 23/60/10 14/46/10 22/59/10

usemtl M_0058_Olive
vt 59.0551 4.33071
vn 1 0 -0
v -0.0399713 2.01671 -0.510736
vt 46.063 24.8031
vt 46.063 4.33071
f 14/61/39 24/62/39 23/63/39

vt 59.0551 24.8031
f 24/62/39 14/61/39 16/64/39

usemtl BackColor
vn -1 -0 0
f 23/63/40 24/62/40 14/61/40

usemtl M_0058_Olive
vn -1.14738e-16 -1.19353e-16 -1
v 0.370029 1.49671 -0.510736
vt -48.8676 4.33071
f 24/45/41 25/65/41 23/43/41

v 0.370029 2.34223 -0.510736
vt -48.8676 37.6189
f 25/65/41 24/45/41 26/66/41

usemtl BackColor
vn 1.14738e-16 1.19353e-16 1
f 23/43/42 25/65/42 24/45/42

usemtl M_0058_Olive
v 0.180029 1.49671 -0.0457362
vt -41.3873 27.7559
vt -48.8676 46.063
f 27/67/9 23/60/9 25/68/9

v 0.180029 1.49671 0.303629
vt -41.3873 14.0014
f 23/60/9 27/67/9 28/69/9

usemtl BackColor
f 28/69/10 27/67/10 23/60/10

usemtl M_0058_Olive
vt -27.7559 4.33071
vn -1 0 -6.45735e-16
v 0.180029 1.38671 0.303629
vt -14.0014 0
vt -14.0014 4.33071
f 27/70/43 29/71/43 28/72/43

v 0.180029 1.38671 -0.0457362
vt -27.7559 0
f 29/71/43 27/70/43 30/73/43

usemtl BackColor
vn 1 -0 6.45735e-16
f 28/72/44 29/71/44 27/70/44

usemtl M_0058_Olive
v 0.370029 1.49671 0.303629
vt 48.8676 4.33071
vt 41.3873 4.33071
vt 41.3873 0
f 31/74/37 28/75/37 29/76/37

v 0.300029 1.49671 0.303629
vt 46.1117 4.33071
f 28/75/37 31/74/37 32/77/37

usemtl BackColor
f 29/76/38 28/75/38 31/74/38

f 32/77/38 31/74/38 28/75/38

usemtl FrontColor
v 0.370029 1.72396 0.303629
vt 48.8676 13.2776
f 33/78/37 32/77/37 31/74/37

v 0.300029 1.72396 0.303629
vt 46.1117 13.2776
f 32/77/37 33/78/37 34/79/37

usemtl BackColor
f 31/74/38 32/77/38 33/78/38

usemtl M_0058_Olive
v 0.370029 1.49671 0.499264
vt -48.8676 6.29921
vt -46.1117 14.0014
vt -48.8676 14.0014
f 35/80/9 32/81/9 31/82/9

f 35/80/9 28/69/9 32/81/9

f 22/59/9 28/69/9 35/80/9

f 22/59/9 23/60/9 28/69/9

usemtl BackColor
f 28/69/10 23/60/10 22/59/10

f 35/80/10 28/69/10 22/59/10

f 32/81/10 28/69/10 35/80/10

usemtl FrontColor
f 27/67/9 32/81/9 28/69/9

v 0.300029 1.49671 -0.0457362
vt -46.1117 27.7559
f 32/81/9 27/67/9 36/83/9

usemtl BackColor
f 28/69/10 32/81/10 27/67/10

f 36/83/10 27/67/10 32/81/10

usemtl M_0058_Olive
v 0.370029 1.49671 -0.0457362
vn 5.01092e-16 -2.4597e-17 -1
vt -41.3873 4.33071
vt -46.1117 4.33071
f 37/65/45 27/84/45 36/85/45

v 0.490029 1.38671 -0.0457362
vt -53.592 6.82712e-16
f 38/86/45 27/84/45 37/65/45

vt -41.3873 6.82712e-16
f 27/84/45 38/86/45 30/87/45

usemtl BackColor
vn -5.01092e-16 2.4597e-17 1
f 30/87/46 38/86/46 27/84/46

usemtl M_0058_Olive
v 0.490029 1.38671 0.303629
vt -53.592 14.0014
vt -53.592 27.7559
f 39/88/9 30/67/9 38/89/9

f 30/67/9 39/88/9 29/69/9

usemtl BackColor
f 29/69/10 39/88/10 30/67/10

usemtl M_0058_Olive
vt 53.592 0
f 39/90/37 31/74/37 29/76/37

v 0.490029 1.72396 0.303629
vt 53.592 13.2776
f 31/74/37 39/90/37 40/91/37

usemtl BackColor
f 29/76/38 31/74/38 39/90/38

f 40/91/38 39/90/38 31/74/38

usemtl M_0058_Olive
vt 27.7559 -2.66009e-14
vn 1 4.96359e-16 3.22867e-16
vt 14.0014 13.2776
vt 14.0014 -2.66009e-14
f 38/92/47 40/93/47 39/94/47

v 0.490029 1.72396 -0.0457362
vt 27.7559 13.2776
f 40/93/47 38/92/47 41/95/47

usemtl BackColor
vn -1 -4.96359e-16 -3.22867e-16
f 39/94/48 40/93/48 38/92/48

f 41/95/48 38/92/48 40/93/48

usemtl M_0058_Olive
vt -53.592 13.2776
f 38/86/45 37/65/45 41/96/45

usemtl BackColor
f 37/65/46 27/84/46 38/86/46

f 36/85/46 27/84/46 37/65/46

usemtl M_0058_Olive
f 27/67/9 25/68/9 36/83/9

usemtl BackColor
f 25/68/10 23/60/10 27/67/10

f 36/83/10 25/68/10 27/67/10

usemtl M_0058_Olive
vt -48.8676 27.7559
f 36/83/9 25/68/9 37/97/9

usemtl BackColor
f 37/97/10 25/68/10 36/83/10

usemtl M_0058_Olive
vn 1 -9.77824e-17 8.61946e-17
v 0.370029 1.72396 -0.0457362
vt 27.7559 4.33071
f 25/63/49 42/95/49 37/98/49

v 0.370029 2.34223 -0.360736
vt 40.1575 37.6189
f 42/95/49 25/63/49 43/99/49

usemtl BackColor
vn -1 9.77824e-17 -8.61946e-17
f 37/98/50 42/95/50 25/63/50

usemtl FrontColor
vn 7.04992e-17 7.66587e-32 -1
v 0.300029 1.72396 -0.0457362
vt -46.1117 13.2776
vt -48.8676 13.2776
f 37/65/51 44/100/51 42/101/51

f 44/100/51 37/65/51 36/85/51

usemtl BackColor
vn -7.04992e-17 -7.66587e-32 1
f 36/85/52 37/65/52 44/100/52

f 42/101/52 44/100/52 37/65/52

usemtl FrontColor
vt 46.1117 27.7559
vt 48.8676 14.0014
vt 48.8676 27.7559
f 44/102/28 33/103/28 42/104/28

vt 46.1117 14.0014
f 33/103/28 44/102/28 34/105/28

usemtl BackColor
f 34/105/29 44/102/29 33/103/29

usemtl FrontColor
f 34/93/47 36/98/47 44/95/47

vt 14.0014 4.33071
f 36/98/47 34/93/47 32/106/47

usemtl BackColor
f 32/106/48 34/93/48 36/98/48

f 34/79/38 33/78/38 32/77/38

f 44/95/48 36/98/48 34/93/48

f 42/104/29 33/103/29 44/102/29

usemtl M_0058_Olive
v 0.370029 2.48671 -0.360736
vt 40.1575 43.3071
f 45/107/49 33/93/49 42/95/49

v 0.370029 2.48671 0.499264
vt 6.29921 43.3071
f 46/108/49 33/93/49 45/107/49

f 46/108/49 31/106/49 33/93/49

vt 6.29921 4.33071
f 31/106/49 46/108/49 35/109/49

usemtl BackColor
f 35/109/50 46/108/50 31/106/50

usemtl M_0058_Olive
vt 48.8676 43.3071
vt 26.8203 4.33071
f 46/110/37 22/111/37 35/74/37

v -0.189971 1.90671 0.499264
vt 26.8203 20.4724
f 22/111/37 46/110/37 47/112/37

usemtl BackColor
f 35/74/38 22/111/38 46/110/38

f 47/112/38 46/110/38 22/111/38

usemtl M_0058_Olive
v -0.569971 1.90671 0.499264
vt 11.8597 20.4724
f 47/112/37 46/110/37 48/113/37

usemtl BackColor
f 48/113/38 46/110/38 47/112/38

usemtl M_0058_Olive
v -0.491208 2.25671 0.499264
vt 14.9606 34.252
f 48/113/37 46/110/37 49/114/37

usemtl BackColor
f 49/114/38 46/110/38 48/113/38

usemtl M_0058_Olive
v -0.491208 2.48671 0.499264
vt 14.9606 43.3071
f 49/114/37 46/110/37 50/115/37

usemtl BackColor
f 50/115/38 46/110/38 49/114/38

usemtl M_0058_Olive
vt 48.8676 6.29921
v -0.491208 2.48671 0.15353
vt 14.9606 19.9108
vt 14.9606 6.29921
f 46/116/28 51/117/28 50/118/28

v 0.091256 2.48671 -0.360736
vt 37.8923 40.1575
f 51/117/28 46/116/28 52/119/28

usemtl BackColor
f 50/118/29 51/117/29 46/116/29

usemtl M_0058_Olive
v -0.491208 2.60671 0.15353
vt 19.9108 48.0315
vn 1 4.76431e-16 -7.51967e-16
vt 19.9108 43.3071
f 53/120/53 50/108/53 51/121/53

v -0.491208 2.60671 0.579264
vt 3.14961 48.0315
f 54/122/53 50/108/53 53/120/53

vt 6.29921 34.252
f 54/122/53 49/123/53 50/108/53

v -0.491208 2.25671 0.579264
vt 3.14961 34.252
f 49/123/53 54/122/53 55/124/53

usemtl BackColor
vn -1 -4.76431e-16 7.51967e-16
f 55/124/54 54/122/54 49/123/54

usemtl M_0058_Olive
vt 14.9606 48.0315
v -0.871208 2.25671 0.579264
vt 0 34.252
f 54/125/37 56/126/37 55/114/37

v -0.871208 2.60671 0.579264
vt 0 48.0315
f 56/126/37 54/125/37 57/127/37

usemtl BackColor
f 55/114/38 56/126/38 54/125/38

usemtl M_0058_Olive
vt 0 3.14961
v -0.569971 2.25671 0.499264
vt -11.8597 6.29921
vt -14.9606 3.14961
f 56/128/9 58/129/9 55/130/9

v -0.569971 2.25671 0.15353
vt -11.8597 19.9108
f 56/128/9 59/131/9 58/129/9

v -0.871208 2.25671 0.15353
vt 0 19.9108
f 59/131/9 56/128/9 60/132/9

usemtl BackColor
f 60/132/10 56/128/10 59/131/10

usemtl M_0058_Olive
vt -3.14961 34.252
v -0.871208 2.60671 0.15353
vt -19.9108 48.0315
vt -19.9108 34.252
f 56/133/35 61/134/35 60/135/35

vt -3.14961 48.0315
f 61/134/35 56/133/35 57/136/35

usemtl BackColor
f 57/136/36 56/133/36 61/134/36

f 57/127/38 54/125/38 56/126/38

usemtl M_0058_Olive
vt 14.9606 3.14961
vn -1.45893e-15 1 1.02469e-15
vt 7.00745e-14 19.9108
vt 7.00745e-14 3.14961
f 54/137/55 61/138/55 57/139/55

f 61/138/55 54/137/55 53/117/55

usemtl BackColor
vn 1.45893e-15 -1 -1.02469e-15
f 57/139/56 61/138/56 54/137/56

f 53/117/56 54/137/56 61/138/56

f 53/120/54 50/108/54 54/122/54

f 51/121/54 50/108/54 53/120/54

usemtl M_0058_Olive
vt -14.9606 43.3071
vn 2.11468e-16 5.09584e-16 -1
vt 4.2105e-15 48.0315
vt -14.9606 48.0315
f 51/140/57 61/141/57 53/142/57

v -0.569971 2.48671 0.15353
vt -11.8597 43.3071
f 62/143/57 61/141/57 51/140/57

vt -11.8597 34.252
f 59/144/57 61/141/57 62/143/57

vt 4.2105e-15 34.252
f 61/141/57 59/144/57 60/145/57

usemtl BackColor
vn -2.11468e-16 -5.09584e-16 1
f 60/145/58 59/144/58 61/141/58

f 62/143/58 61/141/58 59/144/58

f 51/140/58 61/141/58 62/143/58

f 53/142/58 61/141/58 51/140/58

usemtl M_0058_Olive
v -0.569971 2.48671 -0.510736
vt 11.8597 46.063
vt 11.8597 19.9108
f 51/117/28 63/146/28 62/147/28

v 0.091256 2.48671 -0.510736
vt 37.8923 46.063
f 63/146/28 51/117/28 64/148/28

usemtl BackColor
f 62/147/29 63/146/29 51/117/29

usemtl M_0058_Olive
vt -46.063 43.3071
vt -19.9108 43.3071
f 63/149/35 59/135/35 62/150/35

f 59/135/35 63/149/35 20/53/35

usemtl BackColor
f 62/150/36 59/135/36 63/149/36

f 20/53/36 63/149/36 59/135/36

usemtl M_0058_Olive
v -0.569971 2.01671 -0.510736
vt -46.063 24.8031
f 20/53/35 63/149/35 65/151/35

usemtl BackColor
f 65/151/36 63/149/36 20/53/36

usemtl M_0058_Olive
vt -11.8597 24.8031
f 63/143/41 24/45/41 65/152/41

v 0.091256 2.34223 -0.510736
vt -37.8923 37.6189
f 24/45/41 63/143/41 66/153/41

usemtl BackColor
f 65/152/42 24/45/42 63/143/42

usemtl M_0058_Olive
vt 32.7259 59.0551
vt 32.7259 46.063
f 16/154/28 65/146/28 24/155/28

vt 5.1668 59.0551
f 13/156/28 65/146/28 16/154/28

vt 11.8597 37.7953
f 13/156/28 20/157/28 65/146/28

vt 5.1668 37.7953
f 20/157/28 13/156/28 19/158/28

usemtl BackColor
f 19/158/29 13/156/29 20/157/29

f 65/146/29 20/157/29 13/156/29

f 16/154/29 65/146/29 13/156/29

f 24/155/29 65/146/29 16/154/29

f 16/64/40 14/61/40 24/62/40

f 16/45/34 13/42/34 14/43/34

f 19/56/38 20/55/38 17/54/38

f 66/153/42 63/143/42 24/45/42

usemtl M_0058_Olive
vt -37.8923 43.3071
f 66/153/41 63/143/41 64/159/41

usemtl BackColor
f 64/159/42 63/143/42 66/153/42

f 64/148/29 51/117/29 63/146/29

usemtl M_0058_Olive
f 64/148/28 51/117/28 52/119/28

usemtl BackColor
f 52/119/29 51/117/29 64/148/29

f 52/119/29 46/116/29 51/117/29

usemtl M_0058_Olive
vt 48.8676 40.1575
f 52/119/28 46/116/28 45/160/28

usemtl BackColor
f 45/160/29 46/116/29 52/119/29

f 45/107/50 33/93/50 46/108/50

f 42/95/50 33/93/50 45/107/50

usemtl M_0058_Olive
vt 53.592 14.0014
f 40/161/28 42/104/28 33/103/28

vt 53.592 27.7559
f 42/104/28 40/161/28 41/162/28

usemtl BackColor
f 33/103/29 42/104/29 40/161/29

f 41/162/29 40/161/29 42/104/29

usemtl M_0058_Olive
f 41/96/45 37/65/45 42/101/45

usemtl BackColor
f 41/96/46 37/65/46 38/86/46

f 42/101/46 37/65/46 41/96/46

usemtl M_0058_Olive
f 31/74/37 40/91/37 33/78/37

usemtl BackColor
f 33/78/38 40/91/38 31/74/38

f 33/93/50 31/106/50 46/108/50

usemtl M_0058_Olive
f 42/95/49 43/99/49 45/107/49

usemtl BackColor
f 43/99/50 25/63/50 42/95/50

usemtl M_0058_Olive
vt 46.063 37.6189
f 43/99/49 25/63/49 26/163/49

usemtl BackColor
f 26/163/50 25/63/50 43/99/50

f 26/66/42 24/45/42 25/65/42

usemtl M_0058_Olive
f 26/66/41 24/45/41 66/153/41

usemtl BackColor
f 66/153/42 24/45/42 26/66/42

usemtl M_0058_Olive
v 0.091256 2.34223 -0.720736
vt -37.8923 54.3307
vn 5.87735e-16 -1 3.24415e-15
vt -37.8923 46.063
f 67/164/59 26/68/59 66/165/59

v 0.421388 2.34223 -0.720736
vt -50.8896 54.3307
f 26/68/59 67/164/59 68/166/59

usemtl BackColor
vn -5.87735e-16 1 -3.24415e-15
f 66/165/60 26/68/60 67/164/60

f 68/166/60 67/164/60 26/68/60

usemtl M_0058_Olive
v 0.091256 2.55223 -0.720736
vt -37.8923 45.8866
vn -8.6581e-16 -1.37895e-15 -1
vt -50.8896 37.6189
f 69/167/61 68/168/61 67/153/61

v 0.421388 2.55223 -0.720736
vt -50.8896 45.8866
f 68/168/61 69/167/61 70/169/61

usemtl BackColor
vn 8.6581e-16 1.37895e-15 1
f 67/153/62 68/168/62 69/167/62

f 70/169/62 69/167/62 68/168/62

usemtl M_0058_Olive
vt 37.8923 54.3307
vn 7.67003e-31 1 2.6111e-15
v 0.421388 2.55223 -0.360736
vt 50.8896 40.1575
vt 50.8896 54.3307
f 69/170/63 71/171/63 70/172/63

v 0.091256 2.55223 -0.360736
f 71/171/63 69/170/63 72/119/63

usemtl BackColor
vn -7.67003e-31 -1 -2.6111e-15
f 72/119/64 69/170/64 71/171/64

usemtl M_0058_Olive
vn -1 1.77483e-16 -1.79792e-15
vt -40.1575 45.8866
vt -54.3307 45.8866
f 64/149/65 72/173/65 69/174/65

vt -40.1575 43.3071
f 72/173/65 64/149/65 52/175/65

usemtl BackColor
vn 1 -1.77483e-16 1.79792e-15
f 52/175/66 64/149/66 72/173/66

f 69/174/66 72/173/66 64/149/66

usemtl M_0058_Olive
vt -46.063 37.6189
f 64/149/65 69/174/65 66/176/65

usemtl BackColor
f 66/176/66 69/174/66 64/149/66

usemtl M_0058_Olive
vt -54.3307 37.6189
f 66/176/65 69/174/65 67/177/65

usemtl BackColor
f 67/177/66 69/174/66 66/176/66

usemtl M_0058_Olive
vt 37.8923 43.3071
vt 50.8896 45.8866
vt 37.8923 45.8866
f 52/178/37 71/179/37 72/180/37

f 45/110/37 71/179/37 52/178/37

vt 48.8676 37.6189
f 43/181/37 71/179/37 45/110/37

v 0.421388 2.34223 -0.360736
vt 50.8896 37.6189
f 71/179/37 43/181/37 73/182/37

usemtl BackColor
f 73/182/38 43/181/38 71/179/38

usemtl M_0058_Olive
vt -48.8676 40.1575
vt -50.8896 40.1575
f 43/183/59 68/166/59 73/184/59

f 26/68/59 68/166/59 43/183/59

usemtl BackColor
f 43/183/60 68/166/60 26/68/60

f 73/184/60 68/166/60 43/183/60

usemtl M_0058_Olive
vt 54.3307 45.8866
vn 1 -4.35229e-32 -2.17592e-16
vt 54.3307 37.6189
f 70/185/67 73/99/67 68/186/67

vt 40.1575 45.8866
f 73/99/67 70/185/67 71/187/67

usemtl BackColor
vn -1 4.35229e-32 2.17592e-16
f 71/187/68 70/185/68 73/99/68

f 70/172/64 71/171/64 69/170/64

f 68/186/68 73/99/68 70/185/68

f 45/110/38 71/179/38 43/181/38

f 52/178/38 71/179/38 45/110/38

f 72/180/38 71/179/38 52/178/38

f 45/107/50 43/99/50 42/95/50

usemtl M_0058_Olive
f 18/50/35 59/135/35 20/53/35

vt -18.1102 4.33071
f 21/188/35 59/135/35 18/50/35

v -0.569971 1.90671 0.199264
vt -18.1102 20.4724
f 74/189/35 59/135/35 21/188/35

vt -6.29921 20.4724
f 48/190/35 59/135/35 74/189/35

vt -6.29921 34.252
f 59/135/35 48/190/35 58/191/35

usemtl BackColor
f 58/191/36 48/190/36 59/135/36

usemtl M_0058_Olive
vt 11.8597 34.252
f 58/192/37 48/113/37 49/114/37

usemtl BackColor
f 49/114/38 48/113/38 58/192/38

usemtl M_0058_Olive
vt -14.9606 6.29921
f 55/130/9 58/129/9 49/193/9

usemtl BackColor
f 55/130/10 58/129/10 56/128/10

f 49/193/10 58/129/10 55/130/10

f 58/129/10 59/131/10 56/128/10

f 74/189/36 59/135/36 48/190/36

f 21/188/36 59/135/36 74/189/36

f 18/50/36 59/135/36 21/188/36

f 20/53/36 59/135/36 18/50/36

usemtl M_0058_Olive
vt -11.8597 4.33071
v -0.719971 1.90671 0.199264
vt -5.9542 20.4724
vt -11.8597 20.4724
f 21/194/33 75/195/33 74/196/33

v -0.719971 1.49671 0.199264
vt -5.9542 4.33071
f 75/195/33 21/194/33 76/197/33

usemtl BackColor
f 76/197/34 21/194/34 75/195/34

usemtl M_0058_Olive
v -0.719971 1.49671 0.659264
vt -5.9542 0
vt -5.9542 18.1102
f 21/58/9 77/198/9 76/199/9

v -0.189971 1.49671 0.659264
vt -26.8203 0
f 77/198/9 21/58/9 78/200/9

usemtl BackColor
f 76/199/10 77/198/10 21/58/10

usemtl M_0058_Olive
vt 0 4.33071
f 77/201/35 75/189/35 76/188/35

v -0.719971 1.90671 0.659264
vt 0 20.4724
f 75/189/35 77/201/35 79/202/35

usemtl BackColor
f 79/202/36 77/201/36 75/189/36

usemtl M_0058_Olive
vt 5.9542 4.33071
v -0.189971 1.90671 0.659264
vt 5.9542 20.4724
f 77/203/37 80/112/37 79/204/37

f 80/112/37 77/203/37 78/111/37

usemtl BackColor
f 78/111/38 77/203/38 80/112/38

f 78/200/10 21/58/10 77/198/10

usemtl M_0058_Olive
f 78/200/9 21/58/9 22/59/9

usemtl BackColor
f 22/59/10 21/58/10 78/200/10

usemtl M_0058_Olive
f 22/109/39 80/202/39 78/201/39

vt 6.29921 20.4724
f 80/202/39 22/109/39 47/205/39

usemtl BackColor
f 78/201/40 80/202/40 22/109/40

f 47/205/40 22/109/40 80/202/40

usemtl M_0058_Olive
vt 11.8597 6.29921
vt 26.8203 0
vt 26.8203 6.29921
f 48/206/28 80/207/28 47/208/28

vt 5.9542 0
f 48/206/28 79/209/28 80/207/28

vt 5.9542 18.1102
f 79/209/28 48/206/28 75/210/28

usemtl BackColor
f 75/210/29 48/206/29 79/209/29

usemtl M_0058_Olive
vt 11.8597 18.1102
f 74/211/28 75/210/28 48/206/28

usemtl BackColor
f 74/196/34 75/195/34 21/194/34

f 48/206/29 75/210/29 74/211/29

f 80/207/29 79/209/29 48/206/29

f 79/204/38 80/112/38 77/203/38

f 47/208/29 80/207/29 48/206/29

f 76/188/36 75/189/36 77/201/36

f 60/135/36 61/134/36 56/133/36

f 50/108/54 49/123/54 54/122/54

f 31/82/10 32/81/10 35/80/10

f 38/89/10 30/67/10 39/88/10

f 30/73/44 27/70/44 29/71/44

f 15/52/36 13/51/36 17/50/36

g Mesh4 koruna_stvorec1 strom_stvorec1 Model

l 23 24

l 25 23

l 37 25

l 42 37

l 44 42

l 44 36

l 34 44

l 32 34

l 32 31

l 32 36

l 32 28

l 28 29

l 28 27

l 36 27

l 36 37

l 27 30

l 29 30

l 29 39

l 39 40

l 39 38

l 41 38

l 42 41

l 33 42

l 31 33

l 35 31

l 35 46

l 22 35

l 47 22

l 48 47

l 48 74

l 48 58

l 59 58

l 60 59

l 56 60

l 56 57

l 55 56

l 49 55

l 49 50

l 49 58

l 51 50

l 62 51

l 63 62

l 65 63

l 65 20

l 24 65

l 16 24

l 16 13

l 14 16

l 14 15

l 23 14

l 15 13

l 15 17

l 19 17

l 20 19

l 20 18

l 18 17

l 18 21

l 74 21

l 74 75

l 75 76

l 75 79

l 77 79

l 76 77

l 21 76

l 77 78

l 22 78

l 80 78

l 79 80

l 47 80

l 19 13

l 64 63

l 64 52

l 64 66

l 66 67

l 66 26

l 43 26

l 45 43

l 46 45

l 50 46

l 52 45

l 52 72

l 72 69

l 72 71

l 71 70

l 73 71

l 73 68

l 43 73

l 68 70

l 67 68

l 69 67

l 70 69

l 25 26

l 62 59

l 51 53

l 53 54

l 61 53

l 57 61

l 54 57

l 55 54

l 60 61

l 34 33

l 33 40

l 40 41

l 30 38

