# Alias OBJ Model File
# Exported from SketchUp, (c) 2000-2012 Trimble Navigation Limited
# File units = meters

mtllib vytah2.mtl

g Mesh1 G_3DGeom_1 Assembly_1 SimLab_skp Assembly_2 Model

usemtl Concrete_Block_Retaining_Gray
v 3 0 -2
vt 0.0109985 0.194021
vn 0 -1 -0
v 0 0 -0
vt 0.426894 0.463386
v 0 0 -2
vt 0.208166 0.462254
f 1/1/1 2/2/1 3/3/1

vn -0 1 0
f 3/3/2 2/2/2 1/1/2

vn -1 0 -0
v 0 4 -2
vt 0.00390625 0.88696
f 3/3/3 2/2/3 4/4/3

vn 1 -0 0
f 4/4/4 2/2/4 3/3/4

v 0 0.00397227 -0
vt 0.426908 0.463945
f 4/4/3 2/2/3 5/5/3

f 5/5/4 2/2/4 4/4/4

v 0 4 -0
vt 0.307929 0.996094
f 4/4/3 5/5/3 6/6/3

f 6/6/4 5/5/4 4/4/4

vn 0 0 1
v 0.257283 0.131206 -0
vt 0.453615 0.489556
f 6/6/5 5/5/5 7/7/5

vn -0 -0 -1
f 7/7/6 5/5/6 6/6/6

v 0.257283 3.74272 -0
vt 0.360624 0.967413
f 6/6/5 7/7/5 8/8/5

f 8/8/6 7/7/6 6/6/6

vt 0.545889 0.995786
vt 0.487637 0.966953
v 3 4 -0
vt 0.487994 0.609762
f 6/9/5 8/10/5 9/11/5

f 9/11/6 8/10/6 6/9/6

v 2.74272 3.74272 -0
vt 0.455332 0.621063
f 9/11/5 8/10/5 10/12/5

f 10/12/6 8/10/6 9/11/6

v 2.74272 0.131206 -0
vt 0.488893 0.154931
f 9/11/5 10/12/5 11/13/5

f 11/13/6 10/12/6 9/11/6

v 3 0.00397227 -0
vt 0.526108 0.102265
f 9/11/5 11/13/5 12/14/5

f 12/14/6 11/13/6 9/11/6

vt 0.872184 0.159529
vn 1 0 -0
f 1/15/7 9/11/7 12/14/7

vn -1 -0 0
f 12/14/8 9/11/8 1/15/8

v 3 4 -2
vt 0.690292 0.602869
f 13/16/7 9/11/7 1/15/7

vn 0 1 -0
vt 0.882782 0.91308
f 13/16/9 4/17/9 9/11/9

vn -0 -1 0
f 9/11/10 4/17/10 13/16/10

f 9/11/9 4/17/9 6/9/9

f 6/9/10 4/17/10 9/11/10

vn 0 0 -1
f 13/16/11 1/15/11 4/17/11

f 1/15/8 9/11/8 13/16/8

vn -0 -0 1
f 4/17/12 1/15/12 13/16/12

f 4/4/11 1/1/11 3/3/11

f 3/3/12 1/1/12 4/4/12

vt 0.298879 0.0741435
v 3 0 -0
vt 0.29912 0.074637
f 1/1/7 12/18/7 14/19/7

f 14/19/8 12/18/8 1/1/8

f 14/19/1 2/2/1 1/1/1

f 1/1/2 2/2/2 14/19/2

g Mesh2 G_3DGeom_1 Assembly_1 SimLab_skp Assembly_2 Model

v 2.48777 3.16777 -0
vt 0.996094 0.512575
v 1.55 0.257283 -0
vt 0.886426 0.176821
v 2.48777 0.257283 -0
vt 0.996094 0.176821
f 15/20/5 16/21/5 17/22/5

f 17/22/6 16/21/6 15/20/6

v 1.55 3.16777 -0
vt 0.886426 0.512575
f 18/23/5 16/21/5 15/20/5

f 15/20/6 16/21/6 18/23/6

g Mesh3 G_3DGeom_1 Assembly_1 SimLab_skp Assembly_2 Model

v 1.45 3.16777 -0
vt 0.989982 0.00390627
v 0.512227 0.257283 -0
vt 0.649616 0.112088
v 1.45 0.257283 -0
vt 0.649616 0.00390625
f 19/24/5 20/25/5 21/26/5

f 21/26/6 20/25/6 19/24/6

v 0.512227 3.16777 -0
vt 0.989982 0.112088
f 22/27/5 20/25/5 19/24/5

f 19/24/6 20/25/6 22/27/6

g Mesh4 G_3DGeom_1 Assembly_1 SimLab_skp Assembly_2 Model

v 2.31463 3.63676 -0
vt 0.640482 0.0286213
v 0.744634 3.42272 -0
vt 0.456879 0.00392993
v 2.31463 3.42272 -0
vt 0.640482 0.00392996
f 23/28/5 24/29/5 25/30/5

f 25/30/6 24/29/6 23/28/6

v 0.744634 3.63676 -0
vt 0.456879 0.0286213
f 26/31/5 24/29/5 23/28/5

f 23/28/6 24/29/6 26/31/6

g Mesh5 G_3DGeom_2 Assembly_1 SimLab_skp Assembly_2 Model

usemtl Groundcover_River_Rock_4_inch
v 2.74272 3.74272 -0
vt 0.00390625 0.882621
v 2.48777 0.257283 -0
vt 0.914142 0.824739
v 2.74272 0.131206 -0
vt 0.945488 0.91001
f 27/32/5 28/33/5 29/34/5

f 29/34/6 28/33/6 27/32/6

vt 0.960348 0.0880295
f 28/33/5 7/35/5 29/34/5

f 29/34/6 7/35/6 28/33/6

v 3 0.00397227 -0
vt 0.977122 0.996064
f 7/35/5 30/36/5 29/34/5

v 0 0.00397227 -0
vt 0.995058 0.00390625
f 7/35/5 31/37/5 30/36/5

f 30/36/6 31/37/6 7/35/6

vt 0.996094 0.00393634
f 31/37/5 2/38/5 30/36/5

f 30/36/6 2/38/6 31/37/6

vt 0.978158 0.996094
f 30/36/5 2/38/5 14/39/5

f 14/39/6 2/38/6 30/36/6

f 29/34/6 30/36/6 7/35/6

vt 0.925953 0.171388
f 20/40/5 7/35/5 28/33/5

v 0.257283 3.74272 -0
vt 0.0187657 0.0606403
f 32/41/5 7/35/5 20/40/5

f 20/40/6 7/35/6 32/41/6

f 28/33/6 7/35/6 20/40/6

v 0.512227 3.16777 -0
vt 0.167139 0.149315
f 32/41/5 20/40/5 33/42/5

f 33/42/6 20/40/6 32/41/6

v 0.744634 3.42272 -0
vt 0.0992812 0.224244
f 32/41/5 33/42/5 34/43/5

f 34/43/6 33/42/6 32/41/6

v 2.31463 3.42272 -0
vt 0.0898948 0.743473
f 34/43/5 33/42/5 35/44/5

f 35/44/6 33/42/6 34/43/6

v 1.45 3.16777 -0
vt 0.161532 0.459455
f 35/44/5 33/42/5 36/45/5

f 36/45/6 33/42/6 35/44/6

v 1.55 3.16777 -0
vt 0.160935 0.492527
f 35/44/5 36/45/5 37/46/5

f 37/46/6 36/45/6 35/44/6

v 1.45 0.257283 -0
vt 0.920347 0.481528
f 36/45/5 38/47/5 37/46/5

f 37/46/6 38/47/6 36/45/6

vt 0.919749 0.5146
f 37/46/5 38/47/5 16/48/5

f 16/48/6 38/47/6 37/46/6

v 2.48777 3.16777 -0
vt 0.155328 0.802667
f 35/44/5 37/46/5 39/49/5

f 39/49/6 37/46/6 35/44/6

f 27/32/5 35/44/5 39/49/5

f 39/49/6 35/44/6 27/32/6

v 2.31463 3.63676 -0
vt 0.0340917 0.741849
f 27/32/5 40/50/5 35/44/5

f 35/44/6 40/50/6 27/32/6

v 0.744634 3.63676 -0
vt 0.043478 0.22262
f 27/32/5 41/51/5 40/50/5

f 40/50/6 41/51/6 27/32/6

f 32/41/5 41/51/5 27/32/5

f 32/41/5 34/43/5 41/51/5

f 41/51/6 34/43/6 32/41/6

f 27/32/6 41/51/6 32/41/6

f 27/32/5 39/49/5 28/33/5

f 28/33/6 39/49/6 27/32/6

