# Alias OBJ Model File
# Exported from SketchUp, (c) 2000-2012 Trimble Navigation Limited
# File units = meters

mtllib vystavna_miestnost.mtl

g Mesh1 podlaha_hl_budova1 Model

usemtl Blinds_Wood_Bamboo
v 25 0 -15
vt -123.031 73.8189
vn 0 -1 -0
v 0 0 -0
vt 0 0
v 0 0 -15
vt 0 73.8189
f 1/1/1 2/2/1 3/3/1

v 25 0 -0
vt -123.031 0
f 2/2/1 1/1/1 4/4/1

vn -0 1 0
f 3/3/2 2/2/2 1/1/2

vn -1 0 -0
v 0 0.1 -15
vt -73.8189 0.492126
vt -73.8189 0
f 2/2/3 5/5/3 3/6/3

v 0 0.1 -0
vt 0 0.492126
f 5/5/3 2/2/3 6/7/3

vn 1 -0 0
f 6/7/4 2/2/4 5/5/4

vn 0 0 1
v 25 0.1 -0
vt 123.031 0.492126
f 2/2/5 7/8/5 6/7/5

vt 123.031 0
f 7/8/5 2/2/5 4/9/5

vn -0 -0 -1
f 4/9/6 2/2/6 7/8/6

f 4/4/2 1/1/2 2/2/2

vt 73.8189 0
vn 1 0 -0
f 1/10/7 7/7/7 4/2/7

v 25 0.1 -15
vt 73.8189 0.492126
f 7/7/7 1/10/7 8/11/7

vn -1 -0 0
f 4/2/8 7/7/8 1/10/8

f 8/11/8 1/10/8 7/7/8

vn 0 0 -1
vt -123.031 0.492126
f 1/4/9 5/7/9 8/12/9

f 5/7/9 1/4/9 3/2/9

vn -0 -0 1
f 3/2/10 1/4/10 5/7/10

f 8/12/10 5/7/10 1/4/10

vn 0 1 -0
vt 123.031 73.8189
f 5/3/11 7/9/11 8/13/11

f 7/9/11 5/3/11 6/2/11

vn -0 -1 0
f 6/2/12 5/3/12 7/9/12

f 8/13/12 7/9/12 5/3/12

f 6/7/6 7/8/6 2/2/6

f 3/6/4 5/5/4 2/2/4

g Mesh2 Model

usemtl Stone_Flagstone_Ashlar
v 25 6.6 1.5
vt 20.5052 -1.23031
vn -1.9251e-017 1 -8.03424e-050
v 0 6.6 -0
vt 1.04213e-016 -4.34925e-049
v 0 6.6 1.5
vt 1.04213e-016 -1.23031
f 9/14/13 10/15/13 11/16/13

v 0 6.6 -15
vt 1.04213e-016 12.3031
f 10/15/13 9/14/13 12/17/13

vn 1.9251e-017 -1 8.03424e-050
f 11/16/14 10/15/14 9/14/14

usemtl Blinds_Cloth_Horizontal
vt 0 0.393701
vt 5.90551 25.9843
vt 0 25.9843
f 6/18/3 11/19/3 10/20/3

usemtl Blinds_Wood_Bamboo
vt 0 0.479523
vn 4.92579e-018 -0.22486 0.974391
vt 123.031 33.3084
vt -3.73173e-017 33.3084
f 6/21/15 9/22/15 11/23/15

vt 123.031 0.479523
f 9/22/15 6/21/15 7/24/15

usemtl Blinds_Cellular_White
vt 54.6807 0.213121
vn -4.92579e-018 0.22486 -0.974391
vt 0 0.213121
vt 54.6807 14.8037
f 7/25/16 6/26/16 9/27/16

vt -1.65855e-017 14.8037
f 11/28/16 9/27/16 6/26/16

usemtl Blinds_Cloth_Horizontal
f 10/20/4 11/19/4 6/18/4

usemtl Stone_Flagstone_Ashlar
vt -12.3031 5.41339
vt 0 0.082021
vt 0 5.41339
f 12/29/3 6/30/3 10/31/3

vt -12.3031 0.082021
f 6/30/3 12/29/3 5/32/3

usemtl Blinds_Cellular_White
vt 0 14.4357
vt 0 0.218723
vt -32.8084 14.4357
f 10/33/4 6/34/4 12/35/4

vt -32.8084 0.218723
f 5/36/4 12/35/4 6/34/4

usemtl Stone_Flagstone_Ashlar
f 12/17/14 9/14/14 10/15/14

v 25 6.6 -15
vt 20.5052 12.3031
f 12/17/13 9/14/13 13/37/13

f 13/37/14 9/14/14 12/17/14

v 25 6.6 -0
vt 20.5052 -4.34925e-049
f 13/37/13 9/14/13 14/38/13

f 14/38/14 9/14/14 13/37/14

usemtl Blinds_Cloth_Horizontal
vt -5.90551 25.9843
f 14/20/7 9/39/7 7/18/7

f 7/18/8 9/39/8 14/20/8

usemtl Blinds_Wood_Bamboo
vt 0 32.4803
f 8/11/7 14/40/7 7/7/7

vt 73.8189 32.4803
f 14/40/7 8/11/7 13/41/7

usemtl Stone_Flagstone_Ashlar
vt 12.3031 0.082021
f 7/30/8 14/31/8 8/42/8

vt 12.3031 5.41339
f 13/43/8 8/42/8 14/31/8

