# Alias OBJ Model File
# Exported from SketchUp, (c) 2000-2012 Trimble Navigation Limited
# File units = meters

mtllib oblak_2d.mtl

g Mesh1 Model

usemtl _1
v 0.633402 0 -1.68246
vt -0.12668 0.553439
vn 0 -1 -0
v 1.03648 0 -1.46097
vt -0.207296 0.480584
v 0.54873 0 -1.57096
vt -0.109746 0.516764
f 1/1/1 2/2/1 3/3/1

v 0.837551 0 -1.73168
vt -0.16751 0.569632
f 2/2/1 1/1/1 4/4/1

vn -0 1 0
f 3/3/2 2/2/2 1/1/2

f 4/4/2 1/1/2 2/2/2

v 0.961805 0 -1.99371
vt -0.192361 0.655827
f 2/2/1 4/4/1 5/5/1

f 5/5/2 4/4/2 2/2/2

v 1.1118 0 -1.99371
vt -0.222361 0.655827
f 2/2/1 5/5/1 6/6/1

f 6/6/2 5/5/2 2/2/2

v 1.1264 0 -1.25105
vt -0.22528 0.41153
f 7/7/1 2/2/1 6/6/1

v 0.836402 0 -1.25105
vt -0.16728 0.41153
f 2/2/1 7/7/1 8/8/1

f 8/8/2 7/7/2 2/2/2

f 6/6/2 2/2/2 7/7/2

v 1.18668 0 -1.79604
vt -0.237336 0.590804
f 7/7/1 6/6/1 9/9/1

f 9/9/2 6/6/2 7/7/2

v 1.21549 0 -1.06088
vt -0.243098 0.348975
f 7/7/1 9/9/1 10/10/1

f 10/10/2 9/9/2 7/7/2

v 1.25433 0 -1.95201
vt -0.250865 0.642107
f 10/10/1 9/9/1 11/11/1

f 11/11/2 9/9/2 10/10/2

v 1.3966 0 -1.14573
vt -0.27932 0.376884
f 10/10/1 11/11/1 12/12/1

f 12/12/2 11/11/2 10/10/2

v 1.4483 0 -2.1036
vt -0.28966 0.691974
f 11/11/1 13/13/1 12/12/1

v 1.25433 0 -2.05201
vt -0.250865 0.675002
f 13/13/1 11/11/1 14/14/1

f 14/14/2 11/11/2 13/13/2

f 12/12/2 13/13/2 11/11/2

v 1.82289 0 -1.00158
vt -0.364578 0.329467
f 12/12/1 13/13/1 15/15/1

f 15/15/2 13/13/2 12/12/2

v 1.55227 0 -2.38172
vt -0.310455 0.783461
f 15/15/1 13/13/1 16/16/1

f 16/16/2 13/13/2 15/15/2

v 1.4483 0 -2.2736
vt -0.28966 0.747895
f 16/16/1 13/13/1 17/17/1

f 17/17/2 13/13/2 16/16/2

v 1.68227 0 -2.20473
vt -0.336455 0.725239
f 15/15/1 16/16/1 18/18/1

f 18/18/2 16/16/2 15/15/2

v 1.68227 0 -2.38172
vt -0.336455 0.783461
f 18/18/1 16/16/1 19/19/1

f 19/19/2 16/16/2 18/18/2

v 1.73718 0 -2.27604
vt -0.347436 0.748697
f 20/20/1 18/18/1 19/19/1

f 19/19/2 18/18/2 20/20/2

v 1.80428 0 -2.11746
vt -0.360855 0.696533
f 15/15/1 18/18/1 21/21/1

f 21/21/2 18/18/2 15/15/2

v 1.96224 0 -2.25583
vt -0.392449 0.74205
f 15/15/1 21/21/1 22/22/1

f 22/22/2 21/21/2 15/15/2

v 2.06558 0 -1.14122
vt -0.413116 0.375402
f 15/15/1 22/22/1 23/23/1

f 23/23/2 22/22/2 15/15/2

v 2.09224 0 -2.25583
vt -0.418449 0.74205
f 23/23/1 22/22/1 24/24/1

f 24/24/2 22/22/2 23/23/2

v 2.06558 0 -0.970537
vt -0.413116 0.319255
f 23/23/1 24/24/1 25/25/1

f 25/25/2 24/24/2 23/23/2

v 2.26578 0 -0.838171
vt -0.453156 0.275714
f 25/25/1 24/24/1 26/26/1

f 26/26/2 24/24/2 25/25/2

v 2.18403 0 -2.19521
vt -0.436807 0.722109
f 26/26/1 24/24/1 27/27/1

f 27/27/2 24/24/2 26/26/2

v 2.31403 0 -2.19521
vt -0.462807 0.722109
f 26/26/1 27/27/1 28/28/1

f 28/28/2 27/27/2 26/26/2

v 2.50109 0 -0.94876
vt -0.500218 0.312092
f 26/26/1 28/28/1 29/29/1

f 29/29/2 28/28/2 26/26/2

v 2.40656 0 -2.28653
vt -0.481312 0.752148
f 29/29/1 28/28/1 30/30/1

f 30/30/2 28/28/2 29/29/2

v 2.59656 0 -2.28653
vt -0.519312 0.752148
f 29/29/1 30/30/1 31/31/1

f 31/31/2 30/30/2 29/29/2

v 2.634 0 -0.812983
vt -0.526799 0.267429
f 29/29/1 31/31/1 32/32/1

f 32/32/2 31/31/2 29/29/2

v 2.65884 0 -2.22156
vt -0.531769 0.730778
f 32/32/1 31/31/1 33/33/1

f 33/33/2 31/31/2 32/32/2

v 2.9133 0 -0.922485
vt -0.58266 0.303449
f 32/32/1 33/33/1 34/34/1

f 34/34/2 33/33/2 32/32/2

v 2.77434 0 -2.33229
vt -0.554868 0.767202
f 34/34/1 33/33/1 35/35/1

f 35/35/2 33/33/2 34/34/2

v 2.96828 0 -2.33229
vt -0.593657 0.767202
f 34/34/1 35/35/1 36/36/1

f 36/36/2 35/35/2 34/34/2

v 3.0023 0 -1.05545
vt -0.60046 0.347186
f 34/34/1 36/36/1 37/37/1

f 37/37/2 36/36/2 34/34/2

v 3.15828 0 -2.33229
vt -0.631657 0.767202
f 37/37/1 36/36/1 38/38/1

f 38/38/2 36/36/2 37/37/2

v 3.28921 0 -1.0132
vt -0.657841 0.333289
f 37/37/1 38/38/1 39/39/1

f 39/39/2 38/38/2 37/37/2

v 3.27519 0 -2.20887
vt -0.655038 0.726603
f 39/39/1 38/38/1 40/40/1

f 40/40/2 38/38/2 39/39/2

v 3.35505 0 -2.28452
vt -0.67101 0.751486
f 39/39/1 40/40/1 41/41/1

f 41/41/2 40/40/2 39/39/2

v 3.38829 0 -1.22076
vt -0.677659 0.401566
f 39/39/1 41/41/1 42/42/1

f 42/42/2 41/41/2 39/39/2

v 3.4382 0 -2.51936
vt -0.68764 0.828737
f 41/41/1 43/43/1 42/42/1

v 3.35505 0 -2.39452
vt -0.67101 0.78767
f 43/43/1 41/41/1 44/44/1

f 44/44/2 41/41/2 43/43/2

f 42/42/2 43/43/2 41/41/2

v 3.52634 0 -1.13987
vt -0.705269 0.374958
f 42/42/1 43/43/1 45/45/1

f 45/45/2 43/43/2 42/42/2

v 3.5882 0 -2.51936
vt -0.71764 0.828737
f 45/45/1 43/43/1 46/46/1

f 46/46/2 43/43/2 45/45/2

v 3.81598 0 -1.21806
vt -0.763195 0.400677
f 45/45/1 46/46/1 47/47/1

f 47/47/2 46/46/2 45/45/2

v 3.68316 0 -2.39059
vt -0.736632 0.786377
f 47/47/1 46/46/1 48/48/1

f 48/48/2 46/46/2 47/47/2

v 3.76137 0 -2.18153
vt -0.752274 0.717608
f 47/47/1 48/48/1 49/49/1

f 49/49/2 48/48/2 47/47/2

v 3.76137 0 -2.28452
vt -0.752274 0.751486
f 49/49/1 48/48/1 50/50/1

f 50/50/2 48/48/2 49/49/2

v 3.91218 0 -2.10306
vt -0.782436 0.691796
f 47/47/1 49/49/1 51/51/1

f 51/51/2 49/49/2 47/47/2

v 3.94148 0 -1.25194
vt -0.788297 0.411822
f 47/47/1 51/51/1 52/52/1

f 52/52/2 51/51/2 47/47/2

v 4.01523 0 -1.86435
vt -0.803045 0.613274
f 52/52/1 51/51/1 53/53/1

f 53/53/2 51/51/2 52/52/2

v 4.00912 0 -1.37452
vt -0.801823 0.452144
f 52/52/1 53/53/1 54/54/1

f 54/54/2 53/53/2 52/52/2

v 4.1969 0 -1.15353
vt -0.83938 0.379449
f 54/54/1 53/53/1 55/55/1

f 55/55/2 53/53/2 54/54/2

v 4.10224 0 -2.04443
vt -0.820448 0.672511
f 55/55/1 53/53/1 56/56/1

f 56/56/2 53/53/2 55/55/2

v 4.25224 0 -2.04443
vt -0.850448 0.672511
f 55/55/1 56/56/1 57/57/1

f 57/57/2 56/56/2 55/55/2

v 4.25224 0 -1.91299
vt -0.850448 0.629272
f 55/55/1 57/57/1 58/58/1

f 58/58/2 57/57/2 55/55/2

v 4.25427 0 -1.34339
vt -0.850853 0.441903
f 55/55/1 58/58/1 59/59/1

f 59/59/2 58/58/2 55/55/2

v 4.46245 0 -1.74354
vt -0.892489 0.573532
f 60/60/1 59/59/1 58/58/1

v 4.55105 0 -1.43295
vt -0.910209 0.471365
f 59/59/1 60/60/1 61/61/1

f 58/58/2 59/59/2 60/60/2

f 61/61/2 60/60/2 59/59/2

v 4.64245 0 -1.74354
vt -0.928489 0.573532
f 61/61/1 60/60/1 62/62/1

f 62/62/2 60/60/2 61/61/2

v 4.75209 0 -1.49362
vt -0.950418 0.491323
f 61/61/1 62/62/1 63/63/1

f 63/63/2 62/62/2 61/61/2

v 4.75209 0 -1.61362
vt -0.950418 0.530797
f 63/63/1 62/62/1 64/64/1

f 64/64/2 62/62/2 63/63/2

v 4.41691 0 -1.15353
vt -0.883382 0.379449
f 55/55/1 59/59/1 65/65/1

f 65/65/2 59/59/2 55/55/2

