# Alias OBJ Model File
# Exported from SketchUp, (c) 2000-2012 Trimble Navigation Limited
# File units = meters

mtllib SimLab_skp.mtl

g Mesh1 Model

usemtl _
v 1.08138 1.49671 -0.574411
vt 0.158192 0.00242111
vn -0.287627 -0.818454 0.497397
v 0.659447 1.95553 -0.0634261
vt 0.131493 0.197187
v 0.659447 1.64499 -0.574411
vt 0.0691036 0.065365
f 1/1/1 2/2/1 3/3/1

v 1.96503 1.49671 -0.0634261
vt 0.407157 0.00242111
f 2/2/1 1/1/1 4/4/1

vt -0.263752 0.1401
vn 0 -1 -0
v 1.67472 1.49671 -1.72993
vt -0.408468 0.421933
vt -0.479277 0.0154698
f 1/5/2 5/6/2 4/7/2

v 0.845409 1.49671 -1.35764
vt -0.206197 0.331133
f 5/6/2 1/5/2 6/8/2

vt -0.257573 0.142868
vn -0.798614 -0.551656 0.240608
vt -0.0580588 0.142868
v 0.74701 1.65103 -1.33042
vt -0.258138 0.187996
f 6/9/3 1/10/3 7/11/3

vt -0.160851 0.0021268
vn -0.331201 -0.942444 -0.0458936
vt -0.346429 0.00653469
vt -0.174976 -0.106036
f 3/12/4 7/13/4 1/14/4

v 0.659447 1.6818 -1.33042
vt -0.343498 0.0289814
f 7/13/4 3/12/4 8/15/4

vt -0.1401 0.401216
vn -1 0 -0
v 0.659447 2.32498 -1.21881
vt -0.297271 0.567069
vt -0.324492 0.410195
f 3/16/5 9/17/5 8/18/5

v 0.659447 2.38187 -0.532041
vt -0.129766 0.580944
f 3/16/5 10/19/5 9/17/5

vt -0.0154698 0.476958
f 2/20/5 10/19/5 3/16/5

v 0.659447 2.12733 -0.0634261
vt -0.0154698 0.518862
f 10/19/5 2/20/5 11/21/5

vt 0.160841 0.476958
vn 0 0 1
v 2.35565 2.48671 -0.0634261
vt 0.574548 0.606514
vt 0.160841 0.518862
f 2/22/6 12/23/6 11/24/6

vt 0.479277 0.36505
f 4/25/6 12/23/6 2/22/6

v 2.28842 1.49671 -0.0634261
vt 0.558152 0.36505
f 12/23/6 4/25/6 13/26/6

v 2.28842 1.49671 -1.72993
vt -0.558152 0.421933
vt -0.558152 0.0154698
f 4/7/2 14/27/2 13/28/2

f 4/7/2 5/6/2 14/27/2

v 1.67472 2.26562 -1.72993
vt -0.408468 0.552591
vn 0 0 -1
vt -0.558152 0.36505
vt -0.408468 0.36505
f 15/29/7 14/30/7 5/31/7

v 2.28842 2.26562 -1.72993
vt -0.558152 0.552591
f 14/30/7 15/29/7 16/32/7

vt -0.17289 0.552591
vn 0.623974 -7.75878e-17 -0.781445
v 3.07525 1.49671 -1.10166
vt -0.418471 0.36505
vt -0.17289 0.36505
f 16/33/8 17/34/8 14/35/8

v 3.07525 2.32498 -1.10968
vt -0.42119 0.572204
vn 0.619406 -0.0076078 -0.785034
vt -0.422403 0.370179
vt -0.176826 0.557725
f 18/36/9 17/37/9 16/38/9

v 3.07525 2.32498 -0.80447
vt 0.196212 0.567069
vn 1 0 -0
vt 0.268697 0.36505
vt 0.270655 0.567069
f 19/39/10 17/40/10 18/41/10

v 3.07525 2.23677 -0.582542
vt 0.142083 0.545554
f 20/42/10 17/40/10 19/39/10

v 3.07525 1.49671 -0.582542
vt 0.142083 0.36505
f 17/40/10 20/42/10 21/43/10

vt 0.475008 0.606514
vn 0.585049 0 0.810998
vt 0.691423 0.36505
vt 0.691423 0.545554
f 12/44/11 21/45/11 20/46/11

vt 0.488095 0.617431
vn 0.550319 -0.037368 0.834118
vt 0.474409 0.375799
vt 0.704322 0.375799
f 12/47/12 13/48/12 21/49/12

vt -0.75006 0.268697
vt -0.75006 0.142083
f 13/28/2 17/50/2 21/51/2

f 13/28/2 14/27/2 17/50/2

vt -0.534598 0.552591
vn -0.366168 0 -0.930549
vt -0.534598 0.36505
v 0.659447 2.24035 -1.33042
vt -0.268489 0.546426
f 15/52/13 5/53/13 22/54/13

vt -0.278207 0.559336
vn -0.403202 -0.0599091 -0.913148
vt -0.544094 0.377634
vt -0.297744 0.415341
f 22/55/14 5/56/14 7/57/14

vt -0.299109 0.422756
vn -0.407495 -0.0996868 -0.90775
vt -0.54544 0.384928
vt -0.323723 0.384928
f 7/58/15 5/59/15 6/60/15

vt -0.160841 0.546426
vt -0.182198 0.40269
vt -0.160841 0.410195
f 22/61/7 7/62/7 8/63/7

vt -0.324492 0.546426
f 8/18/5 9/17/5 22/64/5

v 1.86735 2.48671 -0.0634261
vt 0.455451 0.606514
f 11/24/6 12/23/6 23/65/6

